<?xml version="1.0" standalone="no"?><!DOCTYPE svg PUBLIC "-//W3C//DTD SVG 1.1//EN" "http://www.w3.org/Graphics/SVG/1.1/DTD/svg11.dtd"><svg t="1708270265641" class="icon" viewBox="0 0 1024 1024" version="1.1" xmlns="http://www.w3.org/2000/svg" p-id="4898" xmlns:xlink="http://www.w3.org/1999/xlink" width="200" height="200"><path d="M947.6 704 698.1 704c-27.3-82.2-35.4-165.2-24-247.1 58.3-47.1 95.7-119.2 95.7-200C769.8 115 654.8 0 512.9 0S256 115 256 256.9c0 80.8 37.3 152.9 95.7 200 11.3 81.9 3.2 164.9-24 247.1L76.4 704C34.2 704 0 738.2 0 780.4l0 165.1c0 42.2 34.2 76.4 76.4 76.4l871.1 0c42.2 0 76.4-34.2 76.4-76.4L1023.9 780.4C1024 738.2 989.8 704 947.6 704zM320 256.9c0-51.5 20.1-100 56.5-136.4S461.4 64 512.9 64c51.5 0 100 20.1 136.4 56.5s56.5 84.9 56.5 136.4c0 51.5-20.1 100-56.5 136.4s-84.9 56.5-136.4 56.5c-51.5 0-100-20.1-136.4-56.5S320 308.4 320 256.9zM419.7 496.4c28.9 11.2 60.3 17.4 93.1 17.4 32.9 0 64.3-6.2 93.1-17.4-3.8 69.2 4.5 138.7 25 207.6L394.7 704C415.2 635 423.6 565.5 419.7 496.4zM960 945.6c0 6.9-5.6 12.4-12.4 12.4L76.4 958c-6.9 0-12.4-5.6-12.4-12.4L64 780.4c0-6.9 5.6-12.4 12.4-12.4l871.1 0c6.9 0 12.4 5.6 12.4 12.4L959.9 945.6z" p-id="4899"></path></svg>