<?xml version="1.0" standalone="no"?><!DOCTYPE svg PUBLIC "-//W3C//DTD SVG 1.1//EN" "http://www.w3.org/Graphics/SVG/1.1/DTD/svg11.dtd"><svg t="1707295938429" class="icon" viewBox="0 0 1024 1024" version="1.1" xmlns="http://www.w3.org/2000/svg" p-id="3841" xmlns:xlink="http://www.w3.org/1999/xlink" width="200" height="200"><path d="M384 0H85.333333C38.4 0 0 38.4 0 85.333333v298.666667c0 46.933333 38.4 85.333333 85.333333 85.333333h298.666667c46.933333 0 85.333333-38.4 85.333333-85.333333V85.333333c0-46.933333-38.4-85.333333-85.333333-85.333333z m0 384H85.333333V85.333333h298.666667v298.666667z m0 42.666667v-42.666667 42.666667zM938.666667 0H640c-46.933333 0-85.333333 38.4-85.333333 85.333333v298.666667c0 46.933333 38.4 85.333333 85.333333 85.333333h298.666667c46.933333 0 85.333333-38.4 85.333333-85.333333V85.333333c0-46.933333-38.4-85.333333-85.333333-85.333333z m0 384H640V85.333333h298.666667v298.666667zM384 554.666667H85.333333c-46.933333 0-85.333333 38.4-85.333333 85.333333v298.666667c0 46.933333 38.4 85.333333 85.333333 85.333333h298.666667c46.933333 0 85.333333-38.4 85.333333-85.333333V640c0-46.933333-38.4-85.333333-85.333333-85.333333z m0 384H85.333333V640h298.666667v298.666667z m0 42.666666v-42.666666 42.666666zM938.666667 554.666667H640c-46.933333 0-85.333333 38.4-85.333333 85.333333v298.666667c0 46.933333 38.4 85.333333 85.333333 85.333333h298.666667c46.933333 0 85.333333-38.4 85.333333-85.333333V640c0-46.933333-38.4-85.333333-85.333333-85.333333z m0 384H640V640h298.666667v298.666667z" p-id="3842"></path></svg>
