<?xml version="1.0" standalone="no"?><!DOCTYPE svg PUBLIC "-//W3C//DTD SVG 1.1//EN" "http://www.w3.org/Graphics/SVG/1.1/DTD/svg11.dtd"><svg t="1707793335381" class="icon" viewBox="0 0 1024 1024" version="1.1" xmlns="http://www.w3.org/2000/svg" p-id="5553" xmlns:xlink="http://www.w3.org/1999/xlink" width="200" height="200"><path d="M837.26 267.28H659l-73.59-123.56c-14.76-24.84-41.66-39.75-71.52-39.91h-0.51c-29.86 0-56.59 14.73-71.69 39.25L366 267.28H190.19c-68.56 0-124.28 53.17-124.28 118.59V802.6c0 65.42 55.72 118.59 124.28 118.59h646.89c68.56 0 124.27-53.17 124.27-118.59V385.87c0.18-65.42-55.54-118.59-124.09-118.59zM190.2 839.78c-23.65 0-42.89-16.69-42.89-37.2v-416.7c0-20.51 19.24-37.18 42.89-37.18h221.52l99.49-163.29 4.53 0.22 97 163.07h224.52c16.89 0 27.47 8.08 32.28 12.89S880 374.41 880 385.68v416.9c0 20.51-19.24 37.2-42.89 37.2z" fill="#2c2c2c" p-id="5554"></path><path d="M741.75 470.13H312.41c-23.6 0-42.72 18.22-42.72 40.7s19.12 40.7 42.72 40.7h429.34c23.6 0 42.72-18.22 42.72-40.7s-19.12-40.7-42.72-40.7zM577.84 673.64H312.41c-23.6 0-42.72 18.22-42.72 40.7S288.81 755 312.41 755h265.43c23.6 0 42.72-18.22 42.72-40.7s-19.12-40.7-42.72-40.7zM350.82 266.62h325.62v81.4H350.82z" fill="#2c2c2c" p-id="5555"></path></svg>