<?xml version="1.0" standalone="no"?><!DOCTYPE svg PUBLIC "-//W3C//DTD SVG 1.1//EN" "http://www.w3.org/Graphics/SVG/1.1/DTD/svg11.dtd"><svg t="1707795504375" class="icon" viewBox="0 0 1024 1024" version="1.1" xmlns="http://www.w3.org/2000/svg" p-id="14849" xmlns:xlink="http://www.w3.org/1999/xlink" width="200" height="200"><path d="M160.00054 895.99944h120.495925l14.495991 8.031995A445.647721 445.647721 0 0 0 512.00032 959.9994c247.423845 0 447.99972-200.575875 447.99972-447.99972S759.424165 63.99996 512.00032 63.99996 64.0006 264.575835 64.0006 511.99968a445.599722 445.599722 0 0 0 83.967948 261.183837L160.00054 789.919506V895.99944z m-47.99997 63.99996a15.99999 15.99999 0 0 1-15.99999-15.99999v-133.455917A509.679681 509.679681 0 0 1 0.00064 511.99968C0.00064 229.231857 229.232497 0 512.00032 0c282.767823 0 511.99968 229.231857 511.99968 511.99968 0 282.767823-229.231857 511.99968-511.99968 511.99968a509.695681 509.695681 0 0 1-248.063845-63.99996H112.00057z" fill="#000000" p-id="14850"></path><path d="M288.00046 463.80771a475.887703 475.887703 0 0 1-60.159962 56.591965l-39.679976-50.207969c70.431956-55.679965 118.719926-129.679919 145.16791-222.927861l61.567961 17.47199A537.695664 537.695664 0 0 1 352.00042 371.999768V767.99952h-63.99996V463.80771zM704.0002 527.99967h79.99995v63.99996H400.00039v-63.99996h79.99995v-111.99993h-79.99995v-63.99996h79.99995v-95.99994h63.99996v95.99994h95.99994v-95.99994h63.99996v95.99994h79.99995v63.99996h-79.99995v111.99993z m-63.99996 0v-111.99993h-95.99994v111.99993h95.99994z m-159.9999 95.99994l55.423965 31.99998-63.99996 110.847931-55.423965-31.99998L480.00034 623.99961z m215.423865 0l63.99996 110.847931-55.423965 31.99998L640.00024 655.99959l55.423965-31.99998z" fill="#000000" p-id="14851"></path></svg>