<?xml version="1.0" standalone="no"?><!DOCTYPE svg PUBLIC "-//W3C//DTD SVG 1.1//EN" "http://www.w3.org/Graphics/SVG/1.1/DTD/svg11.dtd"><svg t="1708270648025" class="icon" viewBox="0 0 1024 1024" version="1.1" xmlns="http://www.w3.org/2000/svg" p-id="10645" xmlns:xlink="http://www.w3.org/1999/xlink" width="200" height="200"><path d="M446.475758 660.107444C442.182118 660.107444 437.789395 659.281744 433.561811 657.465204 371.832486 631.240975 331.934666 570.865798 331.934666 503.620797 331.934666 411.538743 406.610966 336.59822 498.428796 336.59822 590.246626 336.59822 664.922926 411.538743 664.922926 503.620797 664.922926 569.874958 626.907702 630.118023 568.051813 657.101897 551.43873 664.698336 531.853129 657.465204 524.223661 640.852122 516.66025 624.272068 523.926409 604.653438 540.506464 597.056999 575.945504 580.807225 598.866933 544.113121 598.866933 503.620797 598.866933 447.935595 553.816746 402.654212 498.428796 402.654212 443.040846 402.654212 397.990659 447.935595 397.990659 503.620797 397.990659 544.311289 422.101097 580.840253 459.422733 596.660663 476.200955 603.827738 484.02859 623.215172 476.894543 639.993394 471.544007 652.544033 459.323649 660.107444 446.475758 660.107444" fill="#231814" p-id="10646"></path><path d="M542.851451 996.708967 454.039169 996.708967C408.724758 996.708967 371.865514 959.849723 371.865514 914.56834L371.865514 821.561502C363.245207 818.985318 353.435892 815.847658 344.088969 812.577887L293.622191 863.011637C262.608902 894.057954 208.476016 894.057954 177.462727 863.011637L114.643478 800.225416C82.606322 768.18826 82.606322 716.070081 114.61045 684.032925L138.985112 659.691291C151.899058 646.777345 172.772752 646.777345 185.686698 659.691291 198.600645 672.605238 198.600645 693.478932 185.686698 706.392878L161.345065 730.734512C155.069746 737.042859 155.069746 747.215482 161.345065 753.523829L224.164314 816.31005C228.259786 820.405522 233.048845 821.033054 235.525945 821.033054 238.036073 821.033054 242.792104 820.405522 246.887576 816.31005L312.778429 750.452226C322.686828 740.510799 337.747594 737.934615 350.463372 744.044794 365.788363 751.410037 401.029235 761.41752 413.282622 764.654264 427.81494 768.452484 437.921507 781.564598 437.921507 796.559308L437.921507 914.56834C437.921507 923.419843 445.154638 930.652974 454.039169 930.652974L542.851451 930.652974C551.735982 930.652974 558.936086 923.419843 558.936086 914.56834L558.936086 796.559308C558.936086 780.70587 570.23166 767.065308 585.820875 764.125816 606.463372 760.228512 626.841646 753.457773 646.427248 744.044794 659.143027 737.934615 674.170765 740.510799 684.079164 750.452226L749.970017 816.31005C754.098516 820.405522 758.854548 821.033054 761.331648 821.033054 763.808747 821.033054 768.597807 820.405522 772.726306 816.31005L835.545555 753.523829C841.787847 747.215482 841.787847 737.042859 835.512527 730.734512L769.654703 664.876687C759.746304 654.968288 757.17012 639.841466 763.247271 627.191743 772.66025 607.672197 779.43099 587.293923 783.328293 566.651426 786.267785 551.029183 799.908347 539.733609 815.761786 539.733609L914.647607 539.733609C923.532138 539.733609 930.765269 532.500477 930.765269 523.648974L930.765269 434.803664C930.765269 425.952161 923.532138 418.71903 914.647607 418.71903L815.761786 418.71903C799.908347 418.71903 786.267785 407.423455 783.328293 391.834241 779.43099 371.257799 772.66025 350.846497 763.247271 331.260895 757.17012 318.611173 759.746304 303.48435 769.654703 293.575951L835.545555 227.718127C841.787847 221.409779 841.787847 211.237156 835.512527 204.928809L772.726306 142.142588C768.597807 138.047117 763.808747 137.419585 761.331648 137.419585 758.854548 137.419585 754.098516 138.047117 749.970017 142.142588L684.079164 208.000413C674.170765 217.94184 659.143027 220.518023 646.427248 214.407844 626.841646 204.994865 606.463372 198.224126 585.820875 194.326822 570.23166 191.387331 558.936086 177.746768 558.936086 161.89333L558.936086 82.130719C558.936086 73.246188 551.735982 66.046084 542.851451 66.046084L454.039169 66.046084C445.154638 66.046084 437.921507 73.246188 437.921507 82.130719L437.921507 161.89333C437.921507 177.317404 427.220436 190.759799 412.126642 194.095626 397.495239 197.398426 369.025106 205.490285 350.463372 214.407844 337.747594 220.518023 322.686828 217.94184 312.778429 208.000413L246.920604 142.142588C242.792104 138.047117 238.036073 137.419585 235.525945 137.419585 233.048845 137.419585 228.259786 138.047117 224.164314 142.142588L161.345065 204.928809C155.069746 211.237156 155.069746 221.409779 161.345065 227.718127L227.20289 293.575951C236.913121 303.286182 239.621417 317.950613 233.973629 330.468223 227.665282 344.505122 217.162379 372.810115 213.562327 391.834241 210.622836 407.423455 196.982273 418.71903 181.095807 418.71903L82.209986 418.71903C73.358483 418.71903 66.125352 425.952161 66.125352 434.803664L66.125352 523.648974C66.125352 532.500477 73.358483 539.733609 82.209986 539.733609L111.935183 539.733609C130.166637 539.733609 144.963179 554.497123 144.963179 572.761605 144.963179 591.026087 130.166637 605.789601 111.935183 605.789601L82.209986 605.789601C36.928603 605.789601 0.069359 568.930357 0.069359 523.648974L0.069359 434.803664C0.069359 389.522281 36.928603 352.663037 82.209986 352.663037L155.433054 352.663037C158.405573 342.820694 161.807457 333.176519 165.011173 324.75438L114.643478 274.419714C82.606322 242.382557 82.606322 190.264379 114.61045 158.227222L177.462727 95.441001C208.476016 64.394685 262.608902 64.394685 293.622191 95.441001L343.857773 145.643556C353.336808 142.10956 363.047039 139.004928 371.865514 136.395717L371.865514 82.130719C371.865514 36.849336 408.724758-0.009908 454.039169-0.009908L542.851451-0.009908C588.165862-0.009908 624.992078 36.849336 624.992078 82.130719L624.992078 135.834241C634.537169 138.542536 643.983176 141.713224 653.297071 145.41236L703.26843 95.441001C734.24869 64.394685 788.414605 64.394685 819.427893 95.441001L882.247142 158.227222C914.251271 190.264379 914.251271 242.382557 882.247142 274.419714L832.275784 324.391072C835.941891 333.704967 839.112579 343.150974 841.853903 352.663037L914.647607 352.663037C959.962018 352.663037 996.821262 389.522281 996.821262 434.803664L996.821262 523.648974C996.821262 568.930357 959.962018 605.789601 914.647607 605.789601L841.853903 605.789601C839.112579 615.301664 835.941891 624.747671 832.275784 634.094594L882.247142 684.032925C914.251271 716.070081 914.251271 768.18826 882.247142 800.225416L819.427893 863.011637C788.414605 894.057954 734.281718 894.057954 703.235402 863.011637L653.297071 813.040279C643.983176 816.739414 634.537169 819.910102 624.992078 822.618398L624.992078 914.56834C624.992078 959.849723 588.165862 996.708967 542.851451 996.708967" fill="#000000" p-id="10647"></path></svg>