<?xml version="1.0" standalone="no"?><!DOCTYPE svg PUBLIC "-//W3C//DTD SVG 1.1//EN" "http://www.w3.org/Graphics/SVG/1.1/DTD/svg11.dtd"><svg t="1707792012555" class="icon" viewBox="0 0 1024 1024" version="1.1" xmlns="http://www.w3.org/2000/svg" p-id="2758" xmlns:xlink="http://www.w3.org/1999/xlink" width="200" height="200"><path d="M481.578667 968.832l-157.909334-158.293333H85.418667A85.290667 85.290667 0 0 1 0 725.12L0.426667 128.042667C0.426667 80.768 38.4 42.666667 85.845333 42.666667h852.778667c47.189333 0 85.418667 38.101333 85.376 85.418666l-0.426667 597.12c0 47.146667-38.229333 85.333333-85.376 85.333334h-237.781333l-158.549333 158.293333a42.624 42.624 0 0 1-60.288 0z m456.704-243.712L938.666667 128.042667s-852.906667-0.128-852.906667 0.042666c0 0-0.384 597.077333-0.298667 597.077334H341.333333c11.306667 0 22.186667 4.48 30.165334 12.501333l140.330666 140.629333 140.8-140.672a42.624 42.624 0 0 1 30.165334-12.458666h255.488zM277.333333 512a64 64 0 1 1 0-128 64 64 0 0 1 0 128z m234.666667 0a64 64 0 1 1 0-128 64 64 0 0 1 0 128z m234.666667 0a64 64 0 1 1 0-128 64 64 0 0 1 0 128z" fill="#3D3D3D" p-id="2759"></path></svg>