<?xml version="1.0" standalone="no"?><!DOCTYPE svg PUBLIC "-//W3C//DTD SVG 1.1//EN" "http://www.w3.org/Graphics/SVG/1.1/DTD/svg11.dtd"><svg t="1692286151289" class="icon" viewBox="0 0 1024 1024" version="1.1" xmlns="http://www.w3.org/2000/svg" p-id="5507" xmlns:xlink="http://www.w3.org/1999/xlink" width="200" height="200"><path d="M945.2 0H748.3c-21.7 0-39.4 17.6-39.4 39.4s17.6 39.4 39.4 39.4h141.2L755.2 213.1C675.2 145.7 572 105 459.5 105 206.1 105 0 311.2 0 564.5S206.1 1024 459.5 1024 919 817.9 919 564.5c0-112.5-40.7-215.7-108.1-295.7l134.3-134.3v141.2c0 21.8 17.6 39.4 39.4 39.4s39.4-17.6 39.4-39.4V78.8C1024 35.3 988.7 0 945.2 0zM459.5 945.2c-209.9 0-380.7-170.8-380.7-380.7s170.8-380.7 380.7-380.7 380.7 170.8 380.7 380.7-170.8 380.7-380.7 380.7z" fill="#1296db" p-id="5508"></path></svg>
