<svg xmlns="http://www.w3.org/2000/svg" xmlns:xlink="http://www.w3.org/1999/xlink" width="170" viewBox="0 0 678 222">
  <defs>
    <clipPath id="clip-Leaves_111">
      <rect width="678" height="222"/>
    </clipPath>
  </defs>
  <g id="Leaves_111" data-name="Leaves 111" clip-path="url(#clip-Leaves_111)">
    <g id="Group_1" data-name="Group 1" transform="translate(211.595 11.289)">
      <path id="Path_1" data-name="Path 1" d="M978.766,613.96c-68.453-32.952-11.152-99.365-7.782-100.626,3.215,4.347,55.067,58.534,21.262,95.583-.332-.325-34.947-17.767-31.191-66.6C960.519,542.314,947.988,586.938,978.766,613.96Z" transform="translate(-908.545 -513.333)" fill="#467d18"/>
      <path id="Path_2" data-name="Path 2" d="M967.892,516.123l-12.828,28.485" transform="translate(-902.139 -511.498)" fill="#fff" opacity="0.64"/>
      <path id="Path_3" data-name="Path 3" d="M978.766,613.96c-68.453-32.952-11.152-99.365-7.782-100.626.536-.268,39.9,59.073,24.336,73.978-.25.212-20.995,11.09-34.265-45-.4,0-7.476,24.834,1.9,49.1A57.539,57.539,0,0,0,978.766,613.96Z" transform="translate(-908.545 -513.333)" fill="#659833"/>
      <path id="Subtraction_1" data-name="Subtraction 1" d="M3.409,95.348l0,0c15.8-20.738,10.95-43.471,4.1-58.889A156.59,156.59,0,0,1,17.925,18.85,139.151,139.151,0,0,0,5.754,32.763,70.915,70.915,0,0,0,.35,23.6L0,23.072A129.634,129.634,0,0,1,25.831,5.8C33.167,2.067,38.968,0,40.174,0a.633.633,0,0,1,.092.006c-.015.477.018,1.447.064,2.79.308,9.036,1.244,36.532-7.271,61.29A56.088,56.088,0,0,1,16.18,87.13,61.109,61.109,0,0,1,3.635,95.238C3.515,95.3,3.437,95.333,3.409,95.348Z" transform="translate(87.384 0.905)" fill="#fff"/>
      <path id="Subtraction_2" data-name="Subtraction 2" d="M60.877,78.415c-14.06,0-25.945-2.924-35.323-8.691A49.046,49.046,0,0,1,7.15,49.213C1.5,37.764.152,25.394.013,17.032-.143,7.639,1.173.746,1.745,0A42.112,42.112,0,0,0,7.022,2.092,191.307,191.307,0,0,1,31.11,12.342a134.872,134.872,0,0,0-.08,21.975C32.042,45.8,34.8,53.83,39.221,58.194,27.107,52.278,17.266,42.2,9.972,28.251c-.007,0-.009.021,0,.053.125.864,4.635,11.057,13.284,22.092,7.865,10.036,21.005,23.042,38.937,28.011l-.2,0C61.616,78.413,61.244,78.415,60.877,78.415Z" transform="translate(0 25.895)" fill="#fe9505"/>
      <path id="Path_8" data-name="Path 8" d="M981.277,596.1c-46.224,2.143-52.152-50.042-52.152-50.042S945.816,585.78,981.277,596.1Z" transform="translate(-919.209 -491.794)" fill="#ca7d11"/>
      <path id="Path_9" data-name="Path 9" d="M977.922,609.22c38.145-14.354,36.454-64.23,36.737-95.33C1009.515,552.81,999.161,577.959,977.922,609.22Z" transform="translate(-887.096 -512.967)" fill="#dcdcdc"/>
    </g>
    <path id="Path_10" data-name="Path 10" d="M80.028-72.738a11.127,11.127,0,0,1-5.1-2.592,8.966,8.966,0,0,1-2.511-4.05,5.407,5.407,0,0,1,1.377-5.67q2.349-2.43,7.047-.972Q84.4-85.05,88.128-84t7.614,1.863q5.022-11.178,10.368-21.3a111.866,111.866,0,0,1,11.826-18.144,67.585,67.585,0,0,1,14.418-13.446,42.117,42.117,0,0,1,17.982-6.885q-11.178-.81-22.275-2.673t-21.951-3.807q-12.96-2.268-24.948-4.131a147.036,147.036,0,0,0-22.518-1.863q-13.77,0-24.138,4.464T17.982-133.286a36.224,36.224,0,0,0-4.05,15.1,48.424,48.424,0,0,0,1.782,15.256,50.188,50.188,0,0,0,5.751,12.9,49.415,49.415,0,0,0,8.748,10.552,37.625,37.625,0,0,0,10.773,6.9,26.639,26.639,0,0,0,11.826,2.11A14.657,14.657,0,0,1,58.4-69.028,5.74,5.74,0,0,1,61.722-65.5a5.047,5.047,0,0,1-.243,3.444,5.9,5.9,0,0,1-3,2.8h.162a23.742,23.742,0,0,1-8.262,2.644,72.668,72.668,0,0,1-9.234.561,54.427,54.427,0,0,1-14.9-2.349A50.607,50.607,0,0,1,13.2-64.476,53.7,53.7,0,0,1,2.592-73.629,47.9,47.9,0,0,1-5.022-85.05a72.555,72.555,0,0,1-3.4-8.91,52.479,52.479,0,0,1-1.782-17.091,46.5,46.5,0,0,1,3.888-16.605A85.834,85.834,0,0,1,9.558-151.227a82,82,0,0,1,20.169-15.309A83.555,83.555,0,0,1,52.893-174.8a127.3,127.3,0,0,1,24.867-2.43,204.234,204.234,0,0,1,36.288,3.24q17.982,3.24,34.182,6.8,12.474,2.754,23.085,4.779a80.146,80.146,0,0,0,18.063,1.7,21.726,21.726,0,0,0,7.128-1.377,11.493,11.493,0,0,0,4.374-2.673h.162a6.5,6.5,0,0,1,4.536-1.782,7.456,7.456,0,0,1,4.455,1.458,7.642,7.642,0,0,1,2.835,3.888q1.134,3.24-1.62,6.48a55.637,55.637,0,0,1-5.832,5.427,21.042,21.042,0,0,1-6.8,3.321,80.216,80.216,0,0,1-16.038,3.564,145.509,145.509,0,0,1-17.01.972,7.847,7.847,0,0,1,3.888,4.536,3.576,3.576,0,0,1-.648,3.564,5.337,5.337,0,0,1-3.564,1.944,25.014,25.014,0,0,0-11.745,4.7,39.237,39.237,0,0,0-8.829,9.477,76.5,76.5,0,0,0-7.047,13.284Q134.46-96.39,131.382-87.8l-3.888,10.53q1.3,0,2.349.081t2.349.081q4.7-11.016,9.558-15.633t10.044-4.617a19.7,19.7,0,0,1,11.664,3.321,14.535,14.535,0,0,1,5.994,8.019,12.086,12.086,0,0,1,.162,5.913,14.969,14.969,0,0,1-3.078,6.237,26.466,26.466,0,0,1-9.963,6.966A45.106,45.106,0,0,1,142.4-63.5q-1.3,4.05-2.592,8.181t-2.754,8.181A6.063,6.063,0,0,1,134.7-43.9a6.385,6.385,0,0,1-3.483.972,8.762,8.762,0,0,1-3.483-.729,8.089,8.089,0,0,1-2.916-2.106,7.823,7.823,0,0,1-1.7-3.159,6.159,6.159,0,0,1,.324-3.888q.972-3.078,1.782-5.832t1.782-5.346l-4.536-.486-1.458,3.4q-4.05,9.072-8.586,18.387t-9.8,17.982a141.938,141.938,0,0,1-11.5,16.281A86.69,86.69,0,0,1,77.679,4.86a61,61,0,0,1-15.795,8.991,53.2,53.2,0,0,1-18.468,3.483,56.8,56.8,0,0,1-16.6-2.592,60.036,60.036,0,0,1-15.633-7.29A48.179,48.179,0,0,1-.81-3.645,27.516,27.516,0,0,1-6.48-17.5a14.532,14.532,0,0,1,1.62-6.4,13.39,13.39,0,0,1,3.726-4.374A15.668,15.668,0,0,1,3.888-30.78,19.436,19.436,0,0,1,9.4-31.59a16.771,16.771,0,0,1,8.019,1.944,9.341,9.341,0,0,1,4.779,5.67,8.09,8.09,0,0,1,0,4.536,12.7,12.7,0,0,1-3.24,5.184,4.093,4.093,0,0,0-.81,2.916A23.207,23.207,0,0,0,18.63-6.8,29.676,29.676,0,0,0,27.7.081,26.988,26.988,0,0,0,39.2,2.916a21.035,21.035,0,0,0,14.013-4.86A55.65,55.65,0,0,0,64.8-15.228,134.479,134.479,0,0,0,74.844-34.182q4.7-10.692,9.4-21.87L90.4-70.146q-2.754-.648-5.346-1.215t-5.184-1.377ZM154.71-83.754a4.314,4.314,0,0,0-2.916,1.134,18.277,18.277,0,0,0-3.078,4.05,28.461,28.461,0,0,0,3.483-1.539A6.314,6.314,0,0,0,154.71-82.3a1.2,1.2,0,0,0,.324-.891Q155.034-83.754,154.71-83.754Zm74.844,18.84a21.706,21.706,0,0,1,.186,10.974,84.078,84.078,0,0,1-3.534,12.09,4.121,4.121,0,0,0,1.3.186q2.976,0,6.417-2.7a29.987,29.987,0,0,0,6.231-6.789,2.966,2.966,0,0,1,3.441-1.395,11.3,11.3,0,0,1,4.557,2.139,13.167,13.167,0,0,1,3.534,3.906,3.791,3.791,0,0,1,.372,3.906q-5.394,8.556-10.881,11.439A20.157,20.157,0,0,1,230.3-28.644a26.447,26.447,0,0,1-8.37-1.674q-1.116,2.046-2.325,3.906t-2.325,3.348a76.646,76.646,0,0,1-8.463,9.3,74.037,74.037,0,0,1-10.7,8.37,59.329,59.329,0,0,1-11.9,5.952,31.7,31.7,0,0,1-11.9,2.046A22.094,22.094,0,0,1,165.57.558a25.325,25.325,0,0,1-6.789-4.65,32.387,32.387,0,0,1-4.929-6.045,22.454,22.454,0,0,1-2.79-6.045,37.941,37.941,0,0,1,1.86-19.437,61.237,61.237,0,0,1,10.416-18.6,67.651,67.651,0,0,1,16-14.322,41.75,41.75,0,0,1,18.6-6.789q2.046.186,4.278.465a46.192,46.192,0,0,1,4.65.837,12.1,12.1,0,0,1,8.184-3.534q6.51,0,9.765,3.441A20.606,20.606,0,0,1,229.554-64.914ZM188.262-22.32a11.765,11.765,0,0,0,5.58-1.488,28.017,28.017,0,0,0,5.487-3.906,40.508,40.508,0,0,0,5.115-5.58,62.833,62.833,0,0,0,4.464-6.7,40.216,40.216,0,0,1-3.255-5.394,34.108,34.108,0,0,1-2.325-6.138q-.558-1.86-1.023-3.627t-.837-3.627a20.486,20.486,0,0,0-6.045,3.441,31.877,31.877,0,0,0-5.3,5.487,40.842,40.842,0,0,0-4,6.045,42.642,42.642,0,0,0-2.883,6.51,27.082,27.082,0,0,0-1.395,6.045,10.922,10.922,0,0,0,.465,4.836,7.157,7.157,0,0,0,1.767,3.069Q185.286-22.134,188.262-22.32ZM217.65-63.984q-.558.186-1.116,1.953a18.069,18.069,0,0,0-.744,3.813,27.654,27.654,0,0,0,.93-3.162A7.644,7.644,0,0,1,217.65-63.984Zm92.07-.93a21.706,21.706,0,0,1,.186,10.974,84.078,84.078,0,0,1-3.534,12.09,4.121,4.121,0,0,0,1.3.186q2.976,0,6.417-2.7a29.988,29.988,0,0,0,6.231-6.789,2.966,2.966,0,0,1,3.441-1.395,11.3,11.3,0,0,1,4.557,2.139,13.167,13.167,0,0,1,3.534,3.906,3.791,3.791,0,0,1,.372,3.906q-5.394,8.556-10.881,11.439a20.157,20.157,0,0,1-10.881,2.511,26.447,26.447,0,0,1-8.37-1.674q-1.116,2.046-2.325,3.906t-2.325,3.348a76.644,76.644,0,0,1-8.463,9.3,74.033,74.033,0,0,1-10.7,8.37,59.329,59.329,0,0,1-11.9,5.952,31.7,31.7,0,0,1-11.9,2.046A22.094,22.094,0,0,1,245.736.558a25.325,25.325,0,0,1-6.789-4.65,32.387,32.387,0,0,1-4.929-6.045,22.454,22.454,0,0,1-2.79-6.045,37.941,37.941,0,0,1,1.86-19.437,61.237,61.237,0,0,1,10.416-18.6,67.651,67.651,0,0,1,16-14.322,41.75,41.75,0,0,1,18.6-6.789q2.046.186,4.278.465a46.192,46.192,0,0,1,4.65.837,12.1,12.1,0,0,1,8.184-3.534q6.51,0,9.765,3.441A20.606,20.606,0,0,1,309.72-64.914ZM268.428-22.32a11.766,11.766,0,0,0,5.58-1.488,28.017,28.017,0,0,0,5.487-3.906,40.508,40.508,0,0,0,5.115-5.58,62.835,62.835,0,0,0,4.464-6.7,40.211,40.211,0,0,1-3.255-5.394,34.107,34.107,0,0,1-2.325-6.138q-.558-1.86-1.023-3.627t-.837-3.627a20.486,20.486,0,0,0-6.045,3.441,31.877,31.877,0,0,0-5.3,5.487,40.841,40.841,0,0,0-4,6.045,42.639,42.639,0,0,0-2.883,6.51,27.084,27.084,0,0,0-1.4,6.045,10.922,10.922,0,0,0,.465,4.836,7.157,7.157,0,0,0,1.767,3.069Q265.452-22.134,268.428-22.32Zm29.388-41.664q-.558.186-1.116,1.953a18.069,18.069,0,0,0-.744,3.813,27.645,27.645,0,0,0,.93-3.162A7.643,7.643,0,0,1,297.816-63.984ZM408.84-22.032A121.533,121.533,0,0,1,396.933-9.4a60.092,60.092,0,0,1-9.963,7.452,31.7,31.7,0,0,1-8.343,3.483,20.8,20.8,0,0,1-6.885.567A11.99,11.99,0,0,1,366.72.729a16.76,16.76,0,0,1-3.969-2.916,19.291,19.291,0,0,1-2.916-3.726,22.3,22.3,0,0,1-1.863-3.807,54.567,54.567,0,0,1-11.178,8.667,23,23,0,0,1-12.312,3.321A20.226,20.226,0,0,1,326.625.486a24.111,24.111,0,0,1-6.075-3.969,21.843,21.843,0,0,1-4.212-5.1,20.341,20.341,0,0,1-2.268-5.346,28.214,28.214,0,0,1-.486-11.664,44.175,44.175,0,0,1,3.726-11.826,54,54,0,0,1,6.966-11.016,53.708,53.708,0,0,1,9.234-8.991A46.415,46.415,0,0,1,344.121-63.5a26.763,26.763,0,0,1,10.935-2.106q10.206.162,16.2,5.508,4.86-11.5,9.882-22.032T389.4-99.792l2.268-4.05q1.782-3.726,4.536-4.374a28.518,28.518,0,0,1,7.29-.486,27.66,27.66,0,0,1,7.533,1.377,5.592,5.592,0,0,1,3.645,3.807q.81,2.268-.81,5.67l-4.7,11.016L404.3-75.978q-3.4,7.614-7.047,16.281t-6.966,16.281q-3.321,7.614-5.67,13.284t-3,7.29a1.909,1.909,0,0,0,.4,2.187,3.525,3.525,0,0,0,2.025,1.053,43.117,43.117,0,0,0,4.7-2.592,53.014,53.014,0,0,0,5.022-3.564,45.138,45.138,0,0,0,4.374-3.969,26.74,26.74,0,0,0,2.916-3.483L408.678-45.2a6.713,6.713,0,0,1,4.374-1.782,6.516,6.516,0,0,1,3.321.891,7.82,7.82,0,0,1,2.511,2.268,6.375,6.375,0,0,1,1.134,3.159,6.172,6.172,0,0,1-.81,3.564l-2.916,4.7-.972,1.3q-1.134,1.782-2.673,4.05T408.84-22.032ZM346.308-19.44q3.4,0,7.29-4.131t8.1-12.879l-.81.324q1.3-2.754,2.349-5.427a32.917,32.917,0,0,0,1.539-4.86,17.18,17.18,0,0,0,.486-3.564q0-1.377-.81-1.539a11.936,11.936,0,0,0-6.885.4,18.983,18.983,0,0,0-6.075,3.645,27.651,27.651,0,0,0-4.941,5.832,46.417,46.417,0,0,0-3.645,6.8,27.2,27.2,0,0,0-1.944,6.561A11.937,11.937,0,0,0,341.124-23a5.017,5.017,0,0,0,1.944,2.673A4.647,4.647,0,0,0,346.308-19.44Zm148.068-2.592A121.533,121.533,0,0,1,482.469-9.4a60.092,60.092,0,0,1-9.963,7.452,31.7,31.7,0,0,1-8.343,3.483,20.8,20.8,0,0,1-6.885.567A11.415,11.415,0,0,1,452.337.729a17.44,17.44,0,0,1-3.888-2.916,22.107,22.107,0,0,1-3-3.726,19.567,19.567,0,0,1-1.944-3.807A54.567,54.567,0,0,1,432.33-1.053a23,23,0,0,1-12.312,3.321A20.226,20.226,0,0,1,412.161.486a24.111,24.111,0,0,1-6.075-3.969,21.843,21.843,0,0,1-4.212-5.1,20.341,20.341,0,0,1-2.268-5.346A28.214,28.214,0,0,1,399.12-25.6a44.175,44.175,0,0,1,3.726-11.826,54,54,0,0,1,6.966-11.016,53.708,53.708,0,0,1,9.234-8.991A46.415,46.415,0,0,1,429.657-63.5a26.763,26.763,0,0,1,10.935-2.106,31.134,31.134,0,0,1,10.125,1.782,20.524,20.524,0,0,1,7.371,4.7,7.056,7.056,0,0,1,4.617-3.321,27.6,27.6,0,0,1,6.561-.4,26.9,26.9,0,0,1,7.209,1.134,5.43,5.43,0,0,1,3.807,3.888A10.288,10.288,0,0,1,479.31-52q-.648,1.458-1.215,3.159a13.977,13.977,0,0,1-1.377,3v-.162q-2.592,5.994-5.265,12.555T467.16-22.842a1.909,1.909,0,0,0,.4,2.187A3.525,3.525,0,0,0,469.59-19.6a43.117,43.117,0,0,0,4.7-2.592,53.014,53.014,0,0,0,5.022-3.564,45.138,45.138,0,0,0,4.374-3.969A26.74,26.74,0,0,0,486.6-33.21L494.214-45.2a6.712,6.712,0,0,1,4.374-1.782,6.517,6.517,0,0,1,3.321.891,7.82,7.82,0,0,1,2.511,2.268,6.375,6.375,0,0,1,1.134,3.159,6.171,6.171,0,0,1-.81,3.564l-2.916,4.7-.972,1.3q-1.134,1.782-2.673,4.05T494.376-22.032ZM431.844-19.44q6.8,0,14.9-16.038a.719.719,0,0,1,.081-.324.719.719,0,0,0,.081-.324q1.3-2.916,2.268-5.589a31.779,31.779,0,0,0,1.377-4.779,14.57,14.57,0,0,0,.324-3.483q-.081-1.377-.891-1.539a11.936,11.936,0,0,0-6.885.4,18.983,18.983,0,0,0-6.075,3.645,27.651,27.651,0,0,0-4.941,5.832,46.417,46.417,0,0,0-3.645,6.8,27.2,27.2,0,0,0-1.944,6.561A11.937,11.937,0,0,0,426.66-23a5.017,5.017,0,0,0,1.944,2.673A4.647,4.647,0,0,0,431.844-19.44ZM545.568,2.106a16.14,16.14,0,0,1-6.4-.891,16.421,16.421,0,0,1-4.941-2.835,14.649,14.649,0,0,1-3.4-4.131,16.615,16.615,0,0,1-1.782-4.779,19.984,19.984,0,0,1-.081-8.586,59.344,59.344,0,0,1,3-8.262l.648-1.458v.162q.972-2.43,1.944-4.941t2.106-4.941l.162.162,4.05-9.72q.486-.972-1.053.567t-4.212,4.455q-2.673,2.916-5.832,6.8t-5.913,7.776l-.648,1.134q-1.3,3.24-2.916,6.561t-3.4,7.047L514.95-9.72l-1.458,3.24-1.944,4.05q-1.782,3.726-4.455,4.455a23.175,23.175,0,0,1-7.371.4A36.751,36.751,0,0,1,492.513,1.3a5.065,5.065,0,0,1-3.645-3.888,6.353,6.353,0,0,1-.081-2.673,15.318,15.318,0,0,1,.891-3L500.37-32.886l.162.162.486-1.134a4.914,4.914,0,0,1-1.458.162,5.8,5.8,0,0,1-3.888-1.377,7.267,7.267,0,0,1-2.268-3.645,8.91,8.91,0,0,1-.162-3,9.365,9.365,0,0,1,.972-3.321,61.8,61.8,0,0,1,4.131-6.48,54.615,54.615,0,0,1,5.022-5.994,44.246,44.246,0,0,1,5.67-4.941,24.989,24.989,0,0,1,6.075-3.321,15.289,15.289,0,0,1,4.86-.81,12.716,12.716,0,0,1,8.1,2.673,13.638,13.638,0,0,1,4.7,7.047,33.162,33.162,0,0,1,7.047-5.67,18.231,18.231,0,0,1,8.019-2.592,20.623,20.623,0,0,1,11.016,2.43,13.285,13.285,0,0,1,6.8,8.262,14.136,14.136,0,0,1-.81,9.558l-9.234,22.032q-.324,1.458-.729,2.916a4.64,4.64,0,0,0-.243,2.106q.324.81.729.324a3,3,0,0,1,1.377-.81,23.227,23.227,0,0,0,4.779-2.673,60.981,60.981,0,0,0,5.184-4.05q2.511-2.187,4.617-4.374a33.2,33.2,0,0,0,3.24-3.807L582.5-45.36a5.538,5.538,0,0,1,3.078-1.7,5.108,5.108,0,0,1,3,.4,6.994,6.994,0,0,1,2.511,2.106,9.4,9.4,0,0,1,1.62,3.078q.81,3.078,0,4.536L590.6-34.02q-1.782,2.916-3.807,6.075a61.477,61.477,0,0,1-4.293,5.913A103.961,103.961,0,0,1,570.516-9.558a67.639,67.639,0,0,1-10.044,7.29,32.047,32.047,0,0,1-8.262,3.483A28.92,28.92,0,0,1,545.568,2.106ZM642.93-56.538a18.905,18.905,0,0,1,.162,9.558,73.24,73.24,0,0,1-3.078,10.53,3.589,3.589,0,0,0,1.134.162,9.3,9.3,0,0,0,5.589-2.349,26.118,26.118,0,0,0,5.427-5.913,2.583,2.583,0,0,1,3-1.215A9.838,9.838,0,0,1,659.13-43.9a11.467,11.467,0,0,1,3.078,3.4,3.3,3.3,0,0,1,.324,3.4q-4.7,7.452-9.477,9.963a17.557,17.557,0,0,1-9.477,2.187,23.034,23.034,0,0,1-7.29-1.458q-.972,1.782-2.025,3.4t-2.025,2.916a66.756,66.756,0,0,1-7.371,8.1,64.482,64.482,0,0,1-9.315,7.29A51.672,51.672,0,0,1,605.184.486a27.609,27.609,0,0,1-10.368,1.782A19.243,19.243,0,0,1,587.2.486a22.057,22.057,0,0,1-5.913-4.05A28.207,28.207,0,0,1,577-8.829a19.554,19.554,0,0,1-2.43-5.265,33.045,33.045,0,0,1,1.62-16.929,53.336,53.336,0,0,1,9.072-16.2A58.922,58.922,0,0,1,599.19-59.7a36.363,36.363,0,0,1,16.2-5.913q1.782.162,3.726.405a40.234,40.234,0,0,1,4.05.729,10.538,10.538,0,0,1,7.128-3.078q5.67,0,8.505,3A17.947,17.947,0,0,1,642.93-56.538Zm-35.964,37.1a10.247,10.247,0,0,0,4.86-1.3,24.4,24.4,0,0,0,4.779-3.4A35.282,35.282,0,0,0,621.06-29a54.725,54.725,0,0,0,3.888-5.832,35.023,35.023,0,0,1-2.835-4.7,29.707,29.707,0,0,1-2.025-5.346q-.486-1.62-.891-3.159t-.729-3.159a17.843,17.843,0,0,0-5.265,3,27.763,27.763,0,0,0-4.617,4.779,35.574,35.574,0,0,0-3.483,5.265,37.14,37.14,0,0,0-2.511,5.67,23.587,23.587,0,0,0-1.215,5.265A9.513,9.513,0,0,0,601.782-23a6.233,6.233,0,0,0,1.539,2.673Q604.374-19.278,606.966-19.44Zm25.6-36.288q-.486.162-.972,1.7a15.734,15.734,0,0,0-.648,3.321,24.091,24.091,0,0,0,.81-2.754A6.658,6.658,0,0,1,632.562-55.728Z" transform="translate(13 182)" fill="#fff"/>
    <path id="Path_11" data-name="Path 11" d="M15.61-24.99a17.208,17.208,0,0,1,7.56,1.54,11.332,11.332,0,0,1,4.9,4.375,12.945,12.945,0,0,1,1.715,6.825A12.967,12.967,0,0,1,28.07-5.443a11.3,11.3,0,0,1-4.9,4.393A17.208,17.208,0,0,1,15.61.49,17.093,17.093,0,0,1,8.068-1.05,11.352,11.352,0,0,1,3.185-5.425,12.945,12.945,0,0,1,1.47-12.25a12.967,12.967,0,0,1,1.715-6.808A11.317,11.317,0,0,1,8.068-23.45,17.093,17.093,0,0,1,15.61-24.99Zm0,23.87a6.111,6.111,0,0,0,3.972-1.347A8.475,8.475,0,0,0,22.138-6.3a17.651,17.651,0,0,0,.892-5.95,17.651,17.651,0,0,0-.892-5.95,8.475,8.475,0,0,0-2.555-3.833A6.111,6.111,0,0,0,15.61-23.38a6.042,6.042,0,0,0-3.955,1.347A8.544,8.544,0,0,0,9.118-18.2a17.651,17.651,0,0,0-.892,5.95A17.651,17.651,0,0,0,9.118-6.3a8.544,8.544,0,0,0,2.537,3.833A6.042,6.042,0,0,0,15.61-1.12ZM43.68-21h3.5a14.884,14.884,0,0,1,2.782.262,8.7,8.7,0,0,1,2.52.875A4.719,4.719,0,0,1,54.3-18.13a5.444,5.444,0,0,1,.683,2.87,7.166,7.166,0,0,1-.42,2.362,4.857,4.857,0,0,1-1.452,2.1A5.487,5.487,0,0,1,50.33-9.625a5.107,5.107,0,0,1,2.153,1.3,9.391,9.391,0,0,1,1.452,1.75q.175.35.507.963t.805,1.383q.473.77,1.033,1.575a12.191,12.191,0,0,0,1.208,1.488A2.536,2.536,0,0,0,58.5-.507,3.83,3.83,0,0,0,59.64-.35V0H56.1a19.524,19.524,0,0,1-3.2-.228,5.405,5.405,0,0,1-2.345-.963,8.078,8.078,0,0,1-1.943-2.24l-.63-1.19q-.315-.595-.577-1.207a13.017,13.017,0,0,1-.455-1.225q-.193-.612-.333-1.173a3.3,3.3,0,0,0-.805-1.593,1.659,1.659,0,0,0-.805-.472v-.28h.525a2.864,2.864,0,0,0,1.295-.315,3.023,3.023,0,0,0,1.138-1.085,5.548,5.548,0,0,0,.717-2.24q.035-.175.07-.507a4.412,4.412,0,0,0,0-.788,5.275,5.275,0,0,0-.49-2.187,2.932,2.932,0,0,0-1.015-1.155,3.453,3.453,0,0,0-1.12-.473,4.409,4.409,0,0,0-.77-.1,4.826,4.826,0,0,0-.7-.017q-.315.018-.7.017a1.429,1.429,0,0,1-.088-.42q-.052-.385-.122-.77Zm.315,0V0H38.01V-21ZM38.115-2.17,38.185,0h-2.38V-.35h.385a1.777,1.777,0,0,0,1.278-.525,1.731,1.731,0,0,0,.542-1.3Zm0-16.66h-.1a1.744,1.744,0,0,0-.525-1.312,1.748,1.748,0,0,0-1.26-.508h-.42V-21h2.38Zm5.81,16.66h.07a1.6,1.6,0,0,0,.612,1.348,2.065,2.065,0,0,0,1.278.473h.35V0h-2.38Zm30.31-19.25a32.255,32.255,0,0,1,3.308.175,28.859,28.859,0,0,1,3.15.49,10.2,10.2,0,0,1,2.363.77l-.245,5.74h-.245A8.769,8.769,0,0,0,80.85-17.78a5.822,5.822,0,0,0-2.433-1.7,8.349,8.349,0,0,0-2.782-.473A6.5,6.5,0,0,0,71.7-18.812a6.747,6.747,0,0,0-2.327,3.29,15.618,15.618,0,0,0-.77,5.233,16.189,16.189,0,0,0,.665,4.935A6.809,6.809,0,0,0,71.243-2.17,4.917,4.917,0,0,0,74.55-1.05a4.96,4.96,0,0,0,1.908-.367,3.9,3.9,0,0,0,1.5-1.085,2.989,2.989,0,0,0,.683-1.8l.035-4.06a1.229,1.229,0,0,0-.368-1.05,1.624,1.624,0,0,0-1.1-.35h-.49v-.28h9.835v.28H86.1q-1.54,0-1.47,1.4L84.6-3.535A7.932,7.932,0,0,1,82.32-1.7,15.432,15.432,0,0,1,78.592-.175a17.348,17.348,0,0,1-4.637.6A13.421,13.421,0,0,1,67.848-.893a9.55,9.55,0,0,1-4.043-3.763A11.51,11.51,0,0,1,62.37-10.57,11.38,11.38,0,0,1,63.787-16.4a9.3,9.3,0,0,1,4.077-3.728A14.428,14.428,0,0,1,74.235-21.42Zm27.37-.7L112.245-.175h-6.93L99.085-14.6ZM95.1-2.2A1.159,1.159,0,0,0,95.2-.823a1.531,1.531,0,0,0,1.085.473h.245V0h-7.1V-.35h.28a3.076,3.076,0,0,0,1.47-.42A3.086,3.086,0,0,0,92.435-2.2Zm6.51-19.915.035,4.8L94.15-.105H91.455l8.155-17.57q.1-.28.368-.84t.56-1.26q.3-.7.525-1.33a4.331,4.331,0,0,0,.263-1.015Zm2.73,15.68v1.47H95.48V-6.44ZM104.4-2.2h6.825A3.086,3.086,0,0,0,112.49-.77a3.076,3.076,0,0,0,1.47.42h.28V0H102.935V-.35h.28A1.531,1.531,0,0,0,104.3-.823,1.159,1.159,0,0,0,104.4-2.2Zm15.4-19.25,20.93,17.99L141.12.42,120.19-17.535Zm.21,19.355V0h-2.59V-.35h.56a2,2,0,0,0,1.365-.49,1.6,1.6,0,0,0,.56-1.26Zm5.705,0a1.708,1.708,0,0,0,.6,1.26,1.953,1.953,0,0,0,1.33.49h.56V0H125.65V-2.1Zm-5.915-19.355,5.915,6.3V0h-5.81V-17.64a14.534,14.534,0,0,0-.21-2.8l-.21-1.015Zm21.21.455V-3.5a18.429,18.429,0,0,0,.1,2.117,13.47,13.47,0,0,0,.21,1.348l.1.455h-.315l-5.915-6.755L135.17-21Zm-.07,2.1V-21h2.59v.35h-.6a1.953,1.953,0,0,0-1.33.49,1.708,1.708,0,0,0-.6,1.26Zm-5.775,0a1.621,1.621,0,0,0-.542-1.26,1.936,1.936,0,0,0-1.348-.49h-.6V-21h2.59v2.1ZM157.15-21V0h-5.915V-21ZM151.34-2.17V0h-2.415V-.35h.385a1.879,1.879,0,0,0,1.33-.525,1.825,1.825,0,0,0,.595-1.3Zm5.74,0h.105a1.7,1.7,0,0,0,.56,1.3,1.922,1.922,0,0,0,1.365.525h.385V0H157.08Zm0-16.66V-21h2.38v.35h-.35a1.959,1.959,0,0,0-1.365.508,1.69,1.69,0,0,0-.56,1.312Zm-5.74,0h-.105a1.8,1.8,0,0,0-.595-1.312,1.914,1.914,0,0,0-1.33-.508h-.385V-21h2.415ZM185.885-8.75l.665,5.425a6.287,6.287,0,0,1-1.7,1.89A8.712,8.712,0,0,1,182.07-.088a14.024,14.024,0,0,1-4.025.508,17.772,17.772,0,0,1-6.912-1.3,9.789,9.789,0,0,1-4.5-3.71,10.773,10.773,0,0,1-1.575-5.95A10.735,10.735,0,0,1,166.6-16.4a9.821,9.821,0,0,1,4.462-3.728,17.151,17.151,0,0,1,6.982-1.3,21.893,21.893,0,0,1,4.463.42,14.955,14.955,0,0,1,3.272,1.015l-.21,5.74h-.245a7.889,7.889,0,0,0-2.66-4.463,6.948,6.948,0,0,0-4.13-1.243,6.718,6.718,0,0,0-4.06,1.173,6.93,6.93,0,0,0-2.4,3.29,13.962,13.962,0,0,0-.787,4.883,14.016,14.016,0,0,0,.8,4.988A7.489,7.489,0,0,0,174.4-2.31a6.02,6.02,0,0,0,3.64,1.26,8.828,8.828,0,0,0,3.92-.735,5.158,5.158,0,0,0,2.31-2.433A17.676,17.676,0,0,0,185.64-8.75Zm28.42-15.75V0H208.11V-24.5Zm7.945,11.62v1.61H214.2v-1.61Zm1.785-11.62v1.645H214.2V-24.5ZM222.25-11.34v3.71h-.35v-.245a3.286,3.286,0,0,0-.945-2.4,3.358,3.358,0,0,0-2.415-1v-.07Zm0-5.18v3.71h-3.71v-.07a3.386,3.386,0,0,0,2.433-1.015,3.194,3.194,0,0,0,.927-2.415v-.21Zm1.785-6.44v4.41h-.35v-.35a3.939,3.939,0,0,0-1.05-2.887,4,4,0,0,0-2.9-1.1v-.07Zm0-2.17v1.015l-4.27-.385a13.415,13.415,0,0,0,1.628-.1q.858-.1,1.592-.245A5.28,5.28,0,0,0,224.035-25.13ZM208.215-2.555V0h-2.8V-.35h.455A2.123,2.123,0,0,0,207.428-1a2.253,2.253,0,0,0,.682-1.558Zm0-19.39h-.1a2.253,2.253,0,0,0-.682-1.557,2.123,2.123,0,0,0-1.558-.648h-.455v-.35h2.8ZM214.2-2.555h.1A2.253,2.253,0,0,0,214.988-1a2.123,2.123,0,0,0,1.557.648H217V0h-2.8ZM242.97-21.42a17.213,17.213,0,0,1,5.2.735,11.32,11.32,0,0,1,3.99,2.153,9.142,9.142,0,0,1,2.52,3.448,11.777,11.777,0,0,1,.857,4.62,11.552,11.552,0,0,1-.857,4.568,9.174,9.174,0,0,1-2.52,3.43,11.32,11.32,0,0,1-3.99,2.152,17.213,17.213,0,0,1-5.2.735,17.213,17.213,0,0,1-5.2-.735,11.319,11.319,0,0,1-3.99-2.152,9.174,9.174,0,0,1-2.52-3.43,11.552,11.552,0,0,1-.857-4.568,11.777,11.777,0,0,1,.857-4.62,9.142,9.142,0,0,1,2.52-3.448,11.319,11.319,0,0,1,3.99-2.153A17.213,17.213,0,0,1,242.97-21.42Zm0,20.37a5.264,5.264,0,0,0,3.395-1.12,7.036,7.036,0,0,0,2.153-3.238,15.144,15.144,0,0,0,.753-5.058,15.423,15.423,0,0,0-.753-5.11,7.034,7.034,0,0,0-2.153-3.255,5.264,5.264,0,0,0-3.395-1.12,5.264,5.264,0,0,0-3.4,1.12,7.147,7.147,0,0,0-2.17,3.255,15.1,15.1,0,0,0-.77,5.11,14.828,14.828,0,0,0,.77,5.058,7.15,7.15,0,0,0,2.17,3.238A5.264,5.264,0,0,0,242.97-1.05Zm31.64-20.37a17.213,17.213,0,0,1,5.2.735,11.319,11.319,0,0,1,3.99,2.153,9.142,9.142,0,0,1,2.52,3.448,11.777,11.777,0,0,1,.857,4.62,11.553,11.553,0,0,1-.857,4.568,9.174,9.174,0,0,1-2.52,3.43,11.32,11.32,0,0,1-3.99,2.152,17.213,17.213,0,0,1-5.2.735,17.213,17.213,0,0,1-5.2-.735,11.32,11.32,0,0,1-3.99-2.152A9.174,9.174,0,0,1,262.9-5.9a11.552,11.552,0,0,1-.858-4.568,11.776,11.776,0,0,1,.858-4.62,9.142,9.142,0,0,1,2.52-3.448,11.32,11.32,0,0,1,3.99-2.153A17.213,17.213,0,0,1,274.61-21.42Zm0,20.37a5.264,5.264,0,0,0,3.4-1.12,7.036,7.036,0,0,0,2.152-3.238,15.144,15.144,0,0,0,.753-5.058,15.422,15.422,0,0,0-.753-5.11,7.034,7.034,0,0,0-2.152-3.255,5.264,5.264,0,0,0-3.4-1.12,5.264,5.264,0,0,0-3.395,1.12,7.147,7.147,0,0,0-2.17,3.255,15.1,15.1,0,0,0-.77,5.11,14.828,14.828,0,0,0,.77,5.058,7.151,7.151,0,0,0,2.17,3.238A5.264,5.264,0,0,0,274.61-1.05ZM304.465-21a15.929,15.929,0,0,1,6.6,1.242,9.4,9.4,0,0,1,4.217,3.588,10.464,10.464,0,0,1,1.47,5.67,10.464,10.464,0,0,1-1.47,5.67,9.4,9.4,0,0,1-4.217,3.588A15.929,15.929,0,0,1,304.465,0H296.59l-.07-1.5h7.385a5.676,5.676,0,0,0,4.813-2.38,10.9,10.9,0,0,0,1.768-6.615,11.06,11.06,0,0,0-1.75-6.632,5.65,5.65,0,0,0-4.83-2.4h-7.7V-21Zm-3.5,0V0H294.98V-21Zm-5.88,18.76V0H292.6V-.35h.42A1.916,1.916,0,0,0,294.4-.91a1.79,1.79,0,0,0,.578-1.33ZM295.05-18.8h-.07a1.813,1.813,0,0,0-.613-1.347,2.024,2.024,0,0,0-1.382-.508h-.42V-21h2.485Zm49.175-6.2q.7,0,1.872.07t2.415.192q1.243.123,2.188.245a5.385,5.385,0,0,1,1.26.262l-.56,5.005h-.35a3.7,3.7,0,0,0-1.417-3.01A5.89,5.89,0,0,0,345.8-23.38a5.619,5.619,0,0,0-3.342.892,2.879,2.879,0,0,0-1.312,2.258,2.119,2.119,0,0,0,.735,1.89,10.605,10.605,0,0,0,2.03,1.365l6.615,3.71a6.464,6.464,0,0,1,2.747,2.45A6.388,6.388,0,0,1,354.1-7a6.885,6.885,0,0,1-2.853,5.547A12.132,12.132,0,0,1,343.98.49a18.6,18.6,0,0,1-3.325-.28,12.083,12.083,0,0,1-2.7-.787,6.339,6.339,0,0,1-1.82-1.138,4.9,4.9,0,0,1-.262-2,9.731,9.731,0,0,1,.4-2.362,7.125,7.125,0,0,1,.84-1.908h.315a6.4,6.4,0,0,0,.717,3.395,6.174,6.174,0,0,0,2.467,2.52,7.74,7.74,0,0,0,3.92.945A5.541,5.541,0,0,0,348.2-2.24,3.3,3.3,0,0,0,349.44-4.8a3,3,0,0,0-.77-2.012,7.819,7.819,0,0,0-2.485-1.733L340.27-11.9a6.924,6.924,0,0,1-3.1-2.887,6.734,6.734,0,0,1-.717-4.007A6.646,6.646,0,0,1,337.61-22.1a6.372,6.372,0,0,1,2.66-2.135A9.607,9.607,0,0,1,344.225-24.99Zm7.8.35-.105.735H347.34v-.735ZM382.48-21V0h-5.95V-21Zm-13.965,0V0h-5.95V-21Zm8.295,9.765v1.47h-8.575v-1.47ZM362.67-2.17V0h-2.345V-.35h.385a1.837,1.837,0,0,0,1.3-.525,1.7,1.7,0,0,0,.56-1.3Zm5.775,0h.07a1.855,1.855,0,0,0,.577,1.3,1.818,1.818,0,0,0,1.313.525h.385V0h-2.345Zm0-16.66V-21h2.345v.35h-.385a1.852,1.852,0,0,0-1.312.508,1.831,1.831,0,0,0-.577,1.312Zm-5.775,0h-.105a1.69,1.69,0,0,0-.56-1.312,1.87,1.87,0,0,0-1.3-.508h-.385V-21h2.345ZM376.6-2.17V0h-2.31V-.35h.35a1.8,1.8,0,0,0,1.33-.525,1.888,1.888,0,0,0,.56-1.3Zm5.775,0h.105a1.76,1.76,0,0,0,.525,1.3,1.8,1.8,0,0,0,1.33.525h.385V0h-2.345Zm0-16.66V-21h2.38v.35h-.385a1.836,1.836,0,0,0-1.33.508,1.864,1.864,0,0,0-.56,1.312Zm-5.775,0h-.07a1.864,1.864,0,0,0-.56-1.312,1.836,1.836,0,0,0-1.33-.508h-.35V-21h2.31Zm26.285-2.59a17.213,17.213,0,0,1,5.2.735,11.319,11.319,0,0,1,3.99,2.153,9.142,9.142,0,0,1,2.52,3.448,11.777,11.777,0,0,1,.857,4.62,11.553,11.553,0,0,1-.857,4.568,9.174,9.174,0,0,1-2.52,3.43,11.319,11.319,0,0,1-3.99,2.152,17.213,17.213,0,0,1-5.2.735,17.213,17.213,0,0,1-5.2-.735,11.32,11.32,0,0,1-3.99-2.152,9.174,9.174,0,0,1-2.52-3.43,11.552,11.552,0,0,1-.858-4.568,11.776,11.776,0,0,1,.858-4.62,9.142,9.142,0,0,1,2.52-3.448,11.32,11.32,0,0,1,3.99-2.153A17.213,17.213,0,0,1,402.885-21.42Zm0,20.37a5.264,5.264,0,0,0,3.4-1.12,7.036,7.036,0,0,0,2.152-3.238,15.144,15.144,0,0,0,.753-5.058,15.422,15.422,0,0,0-.753-5.11,7.034,7.034,0,0,0-2.152-3.255,5.264,5.264,0,0,0-3.4-1.12,5.264,5.264,0,0,0-3.395,1.12,7.147,7.147,0,0,0-2.17,3.255,15.1,15.1,0,0,0-.77,5.11,14.828,14.828,0,0,0,.77,5.058,7.151,7.151,0,0,0,2.17,3.238A5.264,5.264,0,0,0,402.885-1.05ZM428.785-21h3.22a11.622,11.622,0,0,1,4.672.787,5.648,5.648,0,0,1,2.59,2.1,5.78,5.78,0,0,1,.893,2.853,6.633,6.633,0,0,1-.788,3.675,6.2,6.2,0,0,1-2.4,2.415,5.831,5.831,0,0,1-3.307.718A6.626,6.626,0,0,1,430.185-9.8v-.315l.28-.035a3.515,3.515,0,0,0,.717-.193,3.9,3.9,0,0,0,.945-.525,3.9,3.9,0,0,0,.945-1.032,5.318,5.318,0,0,0,.682-1.75,7.9,7.9,0,0,0,.158-.963,4.336,4.336,0,0,0,.017-.858,4.561,4.561,0,0,0-1.05-2.958,3.463,3.463,0,0,0-2.73-1.1H429.1l-.088-.368q-.087-.367-.157-.735Zm.385,0V0h-5.985V-21ZM423.29-2.17,423.325,0h-2.38V-.35h.42a1.76,1.76,0,0,0,1.3-.525,1.76,1.76,0,0,0,.525-1.3Zm-.035-16.66h-.07a1.716,1.716,0,0,0-.543-1.312,1.852,1.852,0,0,0-1.312-.508h-.385V-21h2.345Zm5.81,16.66h.07a1.924,1.924,0,0,0,.542,1.3,1.788,1.788,0,0,0,1.348.525h.385l-.035.35H429.03Z" transform="translate(224 220)" fill="#dedede"/>
  </g>
</svg>
